<?xml version="1.0" encoding="utf-8"?>
<!-- Generator: Adobe Illustrator 22.1.0, SVG Export Plug-In . SVG Version: 6.00 Build 0)  -->
<svg version="1.1" id="Capa_1" xmlns="http://www.w3.org/2000/svg" xmlns:xlink="http://www.w3.org/1999/xlink" x="0px" y="0px"
	 viewBox="0 0 358.6 358.6" style="enable-background:new 0 0 358.6 358.6;" xml:space="preserve">
<style type="text/css">
	.st0{fill:url(#SVGID_1_);stroke:#000000;stroke-width:2;stroke-miterlimit:10;}
	.st1{fill:#333333;}
	.st2{fill:url(#SVGID_2_);stroke:#000000;stroke-width:0.5;stroke-miterlimit:10;}
</style>
<radialGradient id="SVGID_1_" cx="198.3658" cy="124.5105" r="109.3391" gradientTransform="matrix(0.8774 0.4797 -0.567 1.0371 94.9031 -99.7685)" gradientUnits="userSpaceOnUse">
	<stop  offset="0.3834" style="stop-color:#FFFFFF"/>
	<stop  offset="1" style="stop-color:#FFFFF1"/>
</radialGradient>
<path class="st0" d="M68.7,263.1c-33.9-42.2-22.1-110.7,26.2-159.2c13.3-13.4,29.7-25.3,47.6-34.5c0.6-0.3,1.1-0.7,1.5-1.2l0,0
	c0.4-0.5,0.9-0.9,1.5-1.2c23.7-11.6,49.2-18.1,72.1-18.1c24,0,43.9,7.2,57.6,20.8c19.1,19,25.7,49.4,18.5,85.8
	c-6.9,34.9-25.4,69.6-50.9,95.2c-28.7,28.9-65.7,45.4-101.6,45.4c-26.2,0-48.9-8.8-65.7-25.5c-1.7-1.7-3.4-3.6-5.1-5.7L68.7,263.1z"
	/>
<g>
	<path class="st1" d="M205.4,100.8c-0.6,2.9,0.2,5.5,2.4,8c1.1,1.3,2.4,2.3,3.9,3.1c1.5,0.8,2.8,1.3,4,1.5c1.2,0.2,2.4,0.6,3.6,1
		c1.2,0.5,2.1,1,2.6,1.6c1.2,1.3,1.7,3.2,1.4,5.7c-0.2,2-1.5,4-3.8,6.1c-2.8,2.5-6.7,5.3-11.8,8.5c-0.1,0-0.5,0.3-1.1,0.7
		c-0.6,0.4-1.2,0.8-1.7,1.1c-0.5,0.3-0.8,0.5-0.9,0.5l-0.1,0.1c1.3,1.3,3.7,3.5,7.1,6.6c3.5,3,6,5.5,7.7,7.4
		c1.6,1.8,2.5,3.7,2.8,5.6c0.3,1.9-0.4,3.6-2.1,5.1c-1.1,1-2.4,1.6-3.8,2c-1.5,0.4-2.8,0.5-4,0.5c-1.2,0-2.6,0.2-4.1,0.6
		c-1.5,0.4-2.9,1.2-4.1,2.3c-2.3,2.1-3.5,4.5-3.4,7.2c0.1,2.8,1.2,5.3,3.3,7.7c2.2,2.5,4.8,4,7.6,4.6c2.9,0.6,5.5-0.2,8-2.4
		c1.3-1.1,2.3-2.4,3.1-3.9c0.8-1.5,1.3-2.8,1.5-4c0.2-1.2,0.6-2.4,1-3.6c0.5-1.2,1-2.1,1.7-2.6c1.3-1.2,3.2-1.7,5.7-1.4
		c2,0.2,4,1.5,6.1,3.8c2.5,2.8,5.3,6.7,8.5,11.8c0,0.1,0.3,0.5,0.7,1.1c0.4,0.6,0.8,1.2,1.1,1.7c0.3,0.5,0.5,0.8,0.5,0.9l45.3-40
		c0,0,0-0.1,0-0.1c0-0.1,0-0.1-0.1-0.2l-0.4-0.7c-0.2-0.3-0.5-0.8-0.9-1.4c-0.4-0.6-0.7-1.1-0.9-1.4c-3.2-5.1-6-9-8.5-11.8
		c-2.1-2.4-4.1-3.6-6.1-3.8c-2.5-0.2-4.4,0.3-5.7,1.4c-0.6,0.6-1.2,1.5-1.7,2.6c-0.5,1.2-0.8,2.4-1,3.6c-0.2,1.2-0.8,2.5-1.5,4
		c-0.8,1.5-1.8,2.8-3.1,3.9c-2.4,2.1-5.1,2.9-8,2.4c-2.9-0.6-5.4-2.1-7.6-4.6c-2.1-2.4-3.2-5-3.3-7.7c-0.1-2.8,1-5.2,3.4-7.2
		c1.2-1.1,2.6-1.8,4.1-2.3c1.5-0.4,2.9-0.6,4.1-0.6c1.2,0,2.5-0.2,4-0.5c1.5-0.4,2.7-1,3.8-2c1.7-1.5,2.4-3.2,2.1-5.1
		c-0.3-1.9-1.3-3.8-2.9-5.6c-1.2-1.4-2.5-2.7-4-4.1c-1.5-1.4-3.2-2.9-5.1-4.6c-1.9-1.7-3.3-2.9-4.3-3.9c-0.3-0.3-0.8-0.8-1.3-1.4
		l-0.2,0.2c-1.2,1-2.7,2.7-4.5,5.2c-1.8,2.5-3.3,4.2-4.5,5.2c-3.7,3.2-6.9,3.2-9.8,0c-1-1.1-1.6-2.4-2-3.8c-0.4-1.5-0.5-2.8-0.5-4
		c0-1.2-0.2-2.6-0.6-4.1c-0.4-1.5-1.2-2.9-2.3-4.1c-2.1-2.3-4.5-3.5-7.2-3.4c-2.8,0.1-5.3,1.2-7.7,3.3
		C207.5,95.4,206,97.9,205.4,100.8z"/>
</g>
<g>
	<linearGradient id="SVGID_2_" gradientUnits="userSpaceOnUse" x1="213.3094" y1="141.8517" x2="300.3639" y2="141.8517">
		<stop  offset="0.2293" style="stop-color:#FFFFFF"/>
		<stop  offset="1" style="stop-color:#FFFFF1"/>
	</linearGradient>
	<path class="st2" d="M221.7,105c-0.6,2.6-0.1,5,1.8,7.4c1,1.2,2.1,2.2,3.4,3c1.3,0.8,2.5,1.3,3.6,1.6c1.1,0.3,2.1,0.6,3.2,1.1
		c1.1,0.5,1.8,1,2.3,1.6c1,1.3,1.3,3,1,5.3c-0.3,1.8-1.5,3.6-3.8,5.4c-2.7,2.1-6.4,4.5-11.1,7.2c-0.1,0-0.4,0.2-1,0.6
		c-0.6,0.3-1.1,0.7-1.6,0.9c-0.5,0.3-0.8,0.4-0.9,0.4l-0.1,0.1c1.1,1.3,3.2,3.4,6.2,6.3c3,2.9,5.2,5.3,6.7,7.1
		c1.4,1.7,2.1,3.5,2.3,5.2c0.2,1.8-0.5,3.3-2.1,4.6c-1,0.8-2.2,1.4-3.6,1.6c-1.3,0.3-2.6,0.4-3.7,0.3c-1.1-0.1-2.3,0-3.8,0.4
		c-1.4,0.3-2.7,0.9-3.9,1.9c-2.2,1.8-3.4,3.9-3.4,6.4c0,2.5,0.8,4.9,2.6,7.1c1.9,2.4,4.1,3.9,6.7,4.6c2.6,0.6,5,0.1,7.4-1.8
		c1.2-1,2.2-2.1,3-3.4c0.8-1.3,1.3-2.5,1.6-3.6c0.3-1.1,0.6-2.1,1.1-3.2c0.5-1.1,1-1.8,1.6-2.3c1.3-1,3-1.3,5.3-1
		c1.8,0.3,3.6,1.5,5.4,3.8c2.1,2.7,4.5,6.4,7.2,11.1c0,0.1,0.2,0.4,0.6,1c0.3,0.6,0.7,1.1,0.9,1.6c0.3,0.5,0.4,0.8,0.4,0.9
		l43.2-34.3c0,0,0-0.1,0-0.1c0-0.1,0-0.1-0.1-0.2l-0.3-0.6c-0.1-0.3-0.4-0.7-0.8-1.3c-0.4-0.6-0.6-1-0.8-1.3
		c-2.7-4.8-5.1-8.5-7.2-11.1c-1.8-2.2-3.6-3.5-5.4-3.8c-2.3-0.3-4,0-5.3,1c-0.6,0.5-1.2,1.3-1.6,2.3c-0.5,1.1-0.8,2.1-1.1,3.2
		c-0.3,1.1-0.8,2.3-1.6,3.6c-0.8,1.3-1.8,2.5-3,3.4c-2.3,1.8-4.8,2.4-7.4,1.8c-2.6-0.6-4.8-2.1-6.7-4.5c-1.8-2.3-2.7-4.7-2.6-7.2
		c0-2.5,1.2-4.6,3.4-6.4c1.2-0.9,2.4-1.5,3.9-1.9c1.4-0.3,2.7-0.4,3.8-0.4c1.1,0.1,2.3,0,3.7-0.3c1.3-0.3,2.5-0.8,3.6-1.6
		c1.6-1.3,2.3-2.8,2.1-4.6c-0.2-1.8-1-3.5-2.3-5.2c-1-1.3-2.2-2.6-3.5-4c-1.3-1.4-2.8-2.8-4.4-4.4c-1.7-1.6-2.9-2.8-3.7-3.7
		c-0.3-0.3-0.7-0.7-1.1-1.4l-0.2,0.2c-1.1,0.8-2.6,2.3-4.4,4.5c-1.8,2.1-3.2,3.7-4.3,4.5c-3.5,2.8-6.5,2.6-8.9-0.5
		c-0.8-1-1.4-2.2-1.6-3.6c-0.3-1.3-0.4-2.6-0.3-3.7c0.1-1.1-0.1-2.3-0.4-3.8c-0.3-1.4-0.9-2.7-1.9-3.9c-1.8-2.2-3.9-3.4-6.4-3.4
		c-2.5,0-4.9,0.8-7.2,2.6C223.8,100.1,222.3,102.4,221.7,105z"/>
</g>
</svg>
