<?xml version="1.0" encoding="utf-8"?>
<!-- Generator: Adobe Illustrator 22.1.0, SVG Export Plug-In . SVG Version: 6.00 Build 0)  -->
<svg version="1.1" id="Layer_1" xmlns="http://www.w3.org/2000/svg" xmlns:xlink="http://www.w3.org/1999/xlink" x="0px" y="0px"
	 viewBox="0 0 346 346" style="enable-background:new 0 0 346 346;" xml:space="preserve">
<style type="text/css">
	.st0{fill:#FFFFFF;}
	.st1{fill:url(#SVGID_1_);}
	.st2{fill:none;stroke:#000000;stroke-width:3;stroke-miterlimit:10;}
	.st3{opacity:0.5;fill:#FFF800;}
	.st4{opacity:0.49;fill:#23A6D5;}
</style>
<circle class="st0" cx="172.9" cy="173.6" r="166"/>
<linearGradient id="SVGID_1_" gradientUnits="userSpaceOnUse" x1="208.4779" y1="144.5054" x2="323.1093" y2="49.9528">
	<stop  offset="0" style="stop-color:#B5FFB3"/>
	<stop  offset="1" style="stop-color:#FFFFFF"/>
</linearGradient>
<path class="st1" d="M174.1,172.6l148.6-69.5c-11.7-25-29.6-46.6-51.7-62.8L174.1,172.6z"/>
<g>
	<g>
		<line class="st2" x1="176.1" y1="170.8" x2="284.4" y2="81.4"/>
	</g>
	<line class="st2" x1="279.9" y1="74.5" x2="278.8" y2="85.9"/>
	<line class="st2" x1="284.8" y1="71.5" x2="283.7" y2="82.9"/>
	<line class="st2" x1="274.9" y1="78.6" x2="273.8" y2="90"/>
	<line class="st2" x1="277.6" y1="86.2" x2="289" y2="87.2"/>
	<line class="st2" x1="273.8" y1="90.4" x2="285.2" y2="91.5"/>
	<line class="st2" x1="282.6" y1="82" x2="294" y2="83.1"/>
</g>
<polygon class="st0" points="268,127.5 268,127.5 268,127.5 268,127.5 "/>
<path class="st3" d="M324.1,104.5l-103,46.7c3.1,6.8,4.9,14.3,4.9,22.2c0,29.2-23.8,53-53,53s-53-23.8-53-53s23.8-53,53-53
	c11.6,0,22.3,3.8,31.1,10.1l65.7-92c-28-20.2-61.6-31.1-96.8-31.1c-44.3,0-86.1,17.2-117.4,48.6C24.3,87.5,7,129.2,7,173.5
	s17.3,86,48.6,117.4c31.4,31.3,73.1,48.6,117.4,48.6s86-17.3,117.4-48.6c31.3-31.4,48.6-73.1,48.6-117.4
	C339,149.3,333.9,125.9,324.1,104.5z"/>
<path class="st4" d="M218.2,152.7c2.9,6.3,4.5,13.3,4.5,20.7c0,27.4-22.2,49.6-49.6,49.6s-49.6-22.2-49.6-49.6
	c0-27.4,22.2-49.6,49.6-49.6c10.8,0,20.9,3.5,29,9.4l34.5-48.4c-18.4-13.3-40.5-20.4-63.6-20.4c-29.1,0-56.5,11.3-77.1,31.9
	c-20.6,20.6-31.9,48-31.9,77.1c0,29.1,11.3,56.5,31.9,77.1c20.6,20.6,48,31.9,77.1,31.9c29.1,0,56.5-11.3,77.1-31.9
	c20.6-20.6,31.9-48,31.9-77.1c0-15.9-3.4-31.2-9.8-45.3L218.2,152.7z"/>
<polygon points="171.8,174.2 183,171.5 176.6,163.7 "/>
</svg>
