<?xml version="1.0" encoding="utf-8"?>
<!-- Generator: Adobe Illustrator 22.1.0, SVG Export Plug-In . SVG Version: 6.00 Build 0)  -->
<svg version="1.1" id="Layer_1" xmlns="http://www.w3.org/2000/svg" xmlns:xlink="http://www.w3.org/1999/xlink" x="0px" y="0px"
	 viewBox="0 0 346 346" style="enable-background:new 0 0 346 346;" xml:space="preserve">
<style type="text/css">
	.st0{fill:#FFFFFF;}
	.st1{opacity:0.5;fill:#FFF800;}
	.st2{opacity:0.5;}
	.st3{fill:#23A6D5;}
	.st4{fill:none;stroke:#000000;stroke-width:3;stroke-miterlimit:10;}
</style>
<circle class="st0" cx="173" cy="173" r="166"/>
<path class="st1" d="M290.4,55.6C259,24.3,217.3,7,173,7S86.9,24.2,55.6,55.6C24.3,87,7,128.7,7,173s17.3,86,48.6,117.4
	C87,321.7,128.7,339,173,339s86-17.3,117.4-48.6C321.7,259,339,217.3,339,173S321.8,86.9,290.4,55.6z M173,226
	c-29.2,0-53-23.8-53-53s23.8-53,53-53s53,23.8,53,53S202.2,226,173,226z"/>
<g class="st2">
	<circle class="st3" cx="173" cy="173" r="111.5"/>
	<path class="st3" d="M173,64c29.1,0,56.5,11.3,77.1,31.9s31.9,48,31.9,77.1s-11.3,56.5-31.9,77.1c-20.6,20.6-48,31.9-77.1,31.9
		s-56.5-11.3-77.1-31.9S64,202.1,64,173s11.3-56.5,31.9-77.1C116.5,75.3,143.9,64,173,64 M173,59c-63,0-114,51-114,114
		s51,114,114,114s114-51,114-114S236,59,173,59L173,59z"/>
</g>
<g>
	<g>
		<line class="st4" x1="173" y1="173" x2="272.3" y2="73.7"/>
	</g>
	<line class="st4" x1="267.1" y1="67.2" x2="267.1" y2="78.7"/>
	<line class="st4" x1="271.7" y1="63.8" x2="271.7" y2="75.3"/>
	<line class="st4" x1="262.5" y1="71.8" x2="262.5" y2="83.3"/>
	<line class="st4" x1="266" y1="79.1" x2="277.4" y2="79.1"/>
	<line class="st4" x1="262.5" y1="83.7" x2="274" y2="83.7"/>
	<line class="st4" x1="270.5" y1="74.5" x2="282" y2="74.5"/>
</g>
</svg>
