<?xml version="1.0" encoding="utf-8"?>
<!-- Generator: Adobe Illustrator 22.1.0, SVG Export Plug-In . SVG Version: 6.00 Build 0)  -->
<svg version="1.1" id="Layer_1" xmlns="http://www.w3.org/2000/svg" xmlns:xlink="http://www.w3.org/1999/xlink" x="0px" y="0px"
	 viewBox="0 0 348 352" style="enable-background:new 0 0 348 352;" xml:space="preserve">
<style type="text/css">
	.st0{fill:#FFFFFF;}
	.st1{fill:#CCFFD9;}
	.st2{fill:none;stroke:#000000;stroke-width:5;stroke-miterlimit:10;}
</style>
<g>
	<circle class="st0" cx="174" cy="177" r="166"/>
	<path d="M174,16c43,0,83.4,16.7,113.8,47.2C318.3,93.6,335,134,335,177s-16.7,83.4-47.2,113.8C257.4,321.3,217,338,174,338
		s-83.4-16.7-113.8-47.2C29.7,260.4,13,220,13,177S29.7,93.6,60.2,63.2C90.6,32.7,131,16,174,16 M174,6C79.6,6,3,82.6,3,177
		s76.6,171,171,171s171-76.6,171-171S268.4,6,174,6L174,6z"/>
</g>
<g>
	<circle class="st1" cx="174" cy="177" r="109"/>
	<path d="M174,73c57.3,0,104,46.7,104,104s-46.7,104-104,104S70,234.3,70,177S116.7,73,174,73 M174,63c-63,0-114,51-114,114
		s51,114,114,114s114-51,114-114S237,63,174,63L174,63z"/>
</g>
<g>
	<circle class="st0" cx="174" cy="177" r="53"/>
	<path d="M174,129c26.5,0,48,21.5,48,48s-21.5,48-48,48s-48-21.5-48-48S147.5,129,174,129 M174,119c-32,0-58,26-58,58s26,58,58,58
		s58-26,58-58S206,119,174,119L174,119z"/>
</g>
<g>
	<line class="st2" x1="173.5" y1="177.5" x2="310.5" y2="40.5"/>
</g>
<line class="st2" x1="303.5" y1="32" x2="303.5" y2="47"/>
<line class="st2" x1="309.5" y1="27.5" x2="309.5" y2="42.5"/>
<line class="st2" x1="297.5" y1="38" x2="297.5" y2="53"/>
<line class="st2" x1="302" y1="47.5" x2="317" y2="47.5"/>
<line class="st2" x1="297.5" y1="53.5" x2="312.5" y2="53.5"/>
<line class="st2" x1="308" y1="41.5" x2="323" y2="41.5"/>
</svg>
