<svg id="Layer_1" xmlns="http://www.w3.org/2000/svg" viewBox="0 0 346 346"><style>.st0{fill:#fff}</style><circle class="st0" cx="172.9" cy="173.6" r="166"/><path class="st0" d="M268 127.5z"/><path d="M131.4 336.6l28.4-109.5c-7.2-1.9-14.2-5.2-20.3-10.1-22.7-18.3-26.3-51.8-7.9-74.5s51.8-26.3 74.5-7.9 26.3 51.8 7.9 74.5c-7.3 9-17 15-27.4 17.8l30.3 108.9c33.3-9.1 62.9-28.4 85-55.8 27.8-34.5 40.7-77.8 36-121.9-4.9-44-26.4-83.7-60.9-111.5S199.2 6 155.1 10.6C111 15.4 71.4 37 43.5 71.4S3 149.2 7.6 193.3c4.8 44.1 26.3 83.7 60.8 111.6 18.8 15.2 40.2 25.9 63 31.7z" opacity=".5" fill="#fff800"/><path d="M159.7 273.6c-7.2-1.7-14-5-20.2-9.9-22.8-18-26.7-51.1-8.6-73.9s51.1-26.6 73.9-8.6 26.6 51.1 8.6 73.9c-7.1 9-16.7 15.1-26.9 17.9l17.5 60.6c23.2-6.6 43.7-20.3 58.9-39.5 19.2-24.2 27.8-54.5 24.2-85.2-3.6-30.7-18.9-58.2-43.1-77.3s-54.5-27.8-85.2-24.2-58.2 18.9-77.3 43.1-27.8 54.5-24.2 85.2 18.9 58.2 43.1 77.3c13.2 10.5 28.2 17.7 44.1 21.7l15.2-61.1z" opacity=".49" fill="#23a6d5"/></svg>